<?xml version="1.0" encoding="utf-8"?>
<!-- Generator: Adobe Illustrator 24.1.2, SVG Export Plug-In . SVG Version: 6.00 Build 0)  -->
<svg version="1.1" id="Capa_1" xmlns="http://www.w3.org/2000/svg" xmlns:xlink="http://www.w3.org/1999/xlink" x="0px" y="0px" width="32px" height="32px"
	 viewBox="0 0 100 100" style="enable-background:new 0 0 100 100;" xml:space="preserve">
<path class="st0" d="M64.91,49.71c-0.08-1.58-0.01-4-0.95-5.32c-0.69-0.98-1.59-1.38-2.58-1.57c-0.1-8.65,0.9-19.16-2.32-27.11
	c-1.62-4-4.9-6.44-8.8-8.02c-2.82-1.14-8.35-4.03-11.15-1.97c-3.2,2.37-2.08,8.01-1.96,11.2c0.12,3.39,0.23,6.77,0.39,10.16
	c0.25,5.32,0.63,10.64,0.95,15.96c-1.56,0.51-2.78,1.52-3.18,3.47c-0.77,3.76,0.19,8.64,0.31,12.44c0.13,4.34,0.26,8.68,0.39,13.03
	c0.13,4.34,0.26,8.68,0.39,13.03c0.06,2.01-0.51,5.44,1.03,7.15c2.86,3.19,11.12,2.86,14.9,2.8c5.8-0.08,10.94,0.69,12.33-5.95
	c0.03-0.13,0.06-0.27,0.06-0.43c0.01-8.85,0.1-17.69,0.17-26.53C64.91,57.96,65.11,53.8,64.91,49.71z M40.36,9.76
	c1.23-2.12,3.53-0.87,5.7-0.2c6.51,2.02,10.19,5.12,11.12,12.26c0.9,6.91,0.89,13.82,1.05,20.77c-3.83-0.15-7.69-0.04-11.52,0.05
	c-1.46,0.03-3.32-0.13-5.12-0.06c-0.5-8.55-1-17.08-1.31-25.64C40.21,15.01,39.38,11.44,40.36,9.76z M61.79,53.4
	c-0.02,11.65-0.2,23.29-0.21,34.94c-1.21,4.78-9.9,3.7-13.89,3.36c-1.83-0.15-5.15-0.18-6.8-1.3c-2.12-1.44-1.37-5.01-1.44-7.4
	c-0.18-6.01-0.36-12.02-0.54-18.04c-0.09-3.01-0.18-6.01-0.27-9.02c-0.05-1.79-1.16-7.41-0.28-8.83c1.18-1.91,6.45-1.31,8.35-1.35
	c2.86-0.07,5.72-0.09,8.58-0.07c2.16,0.01,5.26-0.68,6.23,1.36C62.23,48.56,61.8,51.82,61.79,53.4z"/>
</svg>
