<?xml version="1.0" encoding="utf-8"?>
<!-- Generator: Adobe Illustrator 24.1.2, SVG Export Plug-In . SVG Version: 6.00 Build 0)  -->
<svg version="1.1" id="Capa_1" xmlns="http://www.w3.org/2000/svg" xmlns:xlink="http://www.w3.org/1999/xlink" x="0px" y="0px" width="32px" height="32px"
	 viewBox="0 0 100 100" style="enable-background:new 0 0 100 100;" xml:space="preserve">
<g>
	<path class="st0" d="M68.27,95H31.73c-0.54,0-0.99-0.45-0.99-0.99V79.79c0-0.54,0.45-0.99,0.99-0.99h36.54
		c0.54,0,0.99,0.45,0.99,0.99v14.22C69.26,94.55,68.81,95,68.27,95z M32.72,93.02h34.56V80.78H32.72V93.02z"/>
	<path class="st0" d="M68.27,80.78H31.73c-0.54,0-0.9-0.36-0.99-0.9l-8.01-73.8c0-0.27,0.09-0.54,0.27-0.81
		C23.18,5.09,23.45,5,23.72,5h52.56c0.27,0,0.54,0.09,0.72,0.36c0.18,0.27,0.27,0.45,0.27,0.81l-8.01,73.8
		C69.26,80.42,68.81,80.78,68.27,80.78z M32.63,78.8h34.74L75.2,6.98H24.8L32.63,78.8z"/>
	<path class="st0" d="M75.2,16.79H24.8c-0.54,0-0.99-0.45-0.99-0.99c0-0.54,0.45-0.99,0.99-0.99h50.4c0.54,0,0.99,0.45,0.99,0.99
		C76.19,16.34,75.74,16.79,75.2,16.79z"/>
	<path class="st0" d="M50,90.68c-2.52,0-4.59-2.07-4.59-4.59c0-0.54,0.45-0.99,0.99-0.99c0.54,0,0.99,0.45,0.99,0.99
		c0,1.44,1.17,2.52,2.52,2.52c1.44,0,2.52-1.17,2.52-2.52c0-0.54,0.45-0.99,0.99-0.99c0.54,0,0.99,0.45,0.99,0.99
		C54.59,88.61,52.52,90.68,50,90.68z"/>
	<path class="st0" d="M50.54,59.72c-4.68,0-8.55-3.87-8.55-8.55c0-1.62,0.45-3.15,1.35-4.59c0,0,0,0,0-0.09l6.39-10.44
		c0.18-0.27,0.54-0.45,0.81-0.45l0,0c0.36,0,0.63,0.18,0.81,0.45l6.39,10.44c0,0,0,0,0,0.09c0.9,1.35,1.35,2.97,1.35,4.59
		C59.09,55.85,55.31,59.72,50.54,59.72z M45.05,47.48c0,0,0,0.09-0.09,0.09c-0.72,1.08-1.08,2.25-1.08,3.51
		c0,3.6,2.97,6.57,6.57,6.57c3.6,0,6.57-2.97,6.57-6.57c0-1.26-0.36-2.52-1.08-3.51c0,0,0-0.09-0.09-0.09l-5.49-9L45.05,47.48z"/>
	<path class="st0" d="M68.27,95H31.73c-0.54,0-0.99-0.45-0.99-0.99V79.79c0-0.54,0.45-0.99,0.99-0.99h36.54
		c0.54,0,0.99,0.45,0.99,0.99v14.22C69.26,94.55,68.81,95,68.27,95z M32.72,93.02h34.56V80.78H32.72V93.02z"/>
	<path class="st0" d="M68.27,80.78H31.73c-0.54,0-0.9-0.36-0.99-0.9l-8.01-73.8c0-0.27,0.09-0.54,0.27-0.81
		C23.18,5.09,23.45,5,23.72,5h52.56c0.27,0,0.54,0.09,0.72,0.36c0.18,0.27,0.27,0.45,0.27,0.81l-8.01,73.8
		C69.26,80.42,68.81,80.78,68.27,80.78z M32.63,78.8h34.74L75.2,6.98H24.8L32.63,78.8z"/>
	<path class="st0" d="M75.2,16.79H24.8c-0.54,0-0.99-0.45-0.99-0.99c0-0.54,0.45-0.99,0.99-0.99h50.4c0.54,0,0.99,0.45,0.99,0.99
		C76.19,16.34,75.74,16.79,75.2,16.79z"/>
	<path class="st0" d="M50,90.68c-2.52,0-4.59-2.07-4.59-4.59c0-0.54,0.45-0.99,0.99-0.99c0.54,0,0.99,0.45,0.99,0.99
		c0,1.44,1.17,2.52,2.52,2.52c1.44,0,2.52-1.17,2.52-2.52c0-0.54,0.45-0.99,0.99-0.99c0.54,0,0.99,0.45,0.99,0.99
		C54.59,88.61,52.52,90.68,50,90.68z"/>
	<path class="st0" d="M50.54,59.72c-4.68,0-8.55-3.87-8.55-8.55c0-1.62,0.45-3.15,1.35-4.59c0,0,0,0,0-0.09l6.39-10.44
		c0.18-0.27,0.54-0.45,0.81-0.45l0,0c0.36,0,0.63,0.18,0.81,0.45l6.39,10.44c0,0,0,0,0,0.09c0.9,1.35,1.35,2.97,1.35,4.59
		C59.09,55.85,55.31,59.72,50.54,59.72z M45.05,47.48c0,0,0,0.09-0.09,0.09c-0.72,1.08-1.08,2.25-1.08,3.51
		c0,3.6,2.97,6.57,6.57,6.57c3.6,0,6.57-2.97,6.57-6.57c0-1.26-0.36-2.52-1.08-3.51c0,0,0-0.09-0.09-0.09l-5.49-9L45.05,47.48z"/>
</g>
</svg>
