<?xml version="1.0" encoding="utf-8"?>
<!-- Generator: Adobe Illustrator 24.1.2, SVG Export Plug-In . SVG Version: 6.00 Build 0)  -->
<svg version="1.1" id="Capa_1" xmlns="http://www.w3.org/2000/svg" xmlns:xlink="http://www.w3.org/1999/xlink" x="0px" y="0px" width="32px" height="32px"
	 viewBox="0 0 100 100" style="enable-background:new 0 0 100 100;" xml:space="preserve">
<g>
	<path class="st0" d="M59,5H41c-3.31,0-6,2.69-6,6v79.5c0,2.48,2.02,4.5,4.5,4.5h21c2.48,0,4.5-2.02,4.5-4.5V11
		C65,7.69,62.31,5,59,5z M41,8h18c1.66,0,3,1.34,3,3v21h-6.14l-1.36-13.65C54.42,17.58,53.77,17,53,17H42.5v3h2.84l-1.2,12H38V11
		C38,9.34,39.34,8,41,8z M51.64,20l1.2,12h-5.68l1.2-12H51.64z M62,35v3H38v-3H62z M60.5,92h-21c-0.83,0-1.5-0.67-1.5-1.5V41h24
		v49.5C62,91.33,61.33,92,60.5,92z"/>
	<rect x="48.5" y="65" class="st0" width="3" height="3"/>
	<rect x="47" y="71" class="st0" width="6" height="3"/>
	<path class="st0" d="M50,47c-4.14,0-7.5,3.36-7.5,7.5S45.86,62,50,62s7.5-3.36,7.5-7.5C57.5,50.36,54.14,47,50,47z M50,59
		c-2.49,0-4.5-2.01-4.5-4.5S47.51,50,50,50c2.49,0,4.5,2.01,4.5,4.5C54.5,56.98,52.48,59,50,59z"/>
</g>
</svg>
