<?xml version="1.0" encoding="utf-8"?>
<!-- Generator: Adobe Illustrator 24.1.2, SVG Export Plug-In . SVG Version: 6.00 Build 0)  -->
<svg version="1.1" id="Capa_1" xmlns="http://www.w3.org/2000/svg" xmlns:xlink="http://www.w3.org/1999/xlink" x="0px" y="0px" width="32px" height="32px"
	 viewBox="0 0 100 100" style="enable-background:new 0 0 100 100;" xml:space="preserve">
<g>
	<circle class="st0" cx="56.59" cy="12.05" r="1.02"/>
	<circle class="st0" cx="61.21" cy="9.54" r="1.02"/>
	<circle class="st0" cx="61.21" cy="14.53" r="1.02"/>
	<circle class="st0" cx="64.33" cy="12.05" r="1.02"/>
	<circle class="st0" cx="68.28" cy="13.59" r="1.02"/>
	<circle class="st0" cx="68.28" cy="10.57" r="1.02"/>
	<circle class="st0" cx="66.24" cy="7.98" r="1.02"/>
	<circle class="st0" cx="70.24" cy="6.49" r="1.02"/>
	<circle class="st0" cx="66.24" cy="16.1" r="1.02"/>
	<circle class="st0" cx="70.24" cy="17.56" r="1.02"/>
	<path class="st0" d="M63.22,46.65V29.9c1.41-0.7,2.41-2.13,2.41-3.81c0-1.87-1.23-3.43-2.9-4.01c-1.94-2.68-5.02-4.7-8.71-5.82
		V7.93c0-1.62-1.3-2.93-2.9-2.93h-7.7c-1.6,0-2.9,1.32-2.9,2.93v8.33c-3.67,1.1-6.74,3.12-8.68,5.77c-1.78,0.52-3.11,2.11-3.11,4.05
		c0,1.77,1.09,3.3,2.63,3.95v16.61v23.5v16.61c-1.54,0.65-2.63,2.18-2.63,3.95c0,2.36,1.92,4.29,4.29,4.29h28.32
		c2.36,0,4.29-1.93,4.29-4.29c0-1.68-1-3.11-2.41-3.81V70.15V46.65z M47.27,18.29c4.32,0,8.35,1.33,11.07,3.52H36.19
		C38.91,19.61,42.95,18.29,47.27,18.29z M31.75,26.09c0-0.71,0.57-1.28,1.28-1.28h28.32c0.71,0,1.28,0.57,1.28,1.28
		c0,0.71-0.57,1.28-1.28,1.28H33.02C32.32,27.37,31.75,26.79,31.75,26.09z M60.21,30.38v14.77H34.37V30.38H60.21z M60.21,48.15
		v20.49H34.37V48.15H60.21z M34.37,71.65h25.84v14.77H34.37V71.65z M43.42,8.01l7.59-0.08v2.51h-1.97c-0.83,0-1.5,0.68-1.5,1.5
		s0.68,1.5,1.5,1.5h1.97v2.14c-1.21-0.19-2.46-0.32-3.74-0.32c-1.29,0-2.54,0.13-3.76,0.32L43.42,8.01z M61.34,91.99H33.02
		c-0.71,0-1.28-0.57-1.28-1.28s0.57-1.28,1.28-1.28h28.32c0.71,0,1.28,0.57,1.28,1.28S62.05,91.99,61.34,91.99z"/>
</g>
</svg>
