<?xml version="1.0" encoding="utf-8"?>
<!-- Generator: Adobe Illustrator 24.1.2, SVG Export Plug-In . SVG Version: 6.00 Build 0)  -->
<svg version="1.1" id="Capa_1" xmlns="http://www.w3.org/2000/svg" xmlns:xlink="http://www.w3.org/1999/xlink" x="0px" y="0px" width="32px" height="32px"
	 viewBox="0 0 100 100" style="enable-background:new 0 0 100 100;" xml:space="preserve">
<g>
	<path class="st0" d="M93.26,53.27h-5.22v-8.69c0-0.96-0.78-1.74-1.74-1.74H40.52l24.01-24.01c0.68-0.68,0.69-1.78,0.01-2.46
		c0,0-0.01-0.01-0.01-0.01l-7.37-7.37c-0.68-0.67-1.77-0.67-2.45,0L5.51,58.16c-0.68,0.68-0.69,1.78-0.01,2.46
		c0,0,0.01,0.01,0.01,0.01L12.9,68c0.32,0.32,0.76,0.5,1.22,0.5c0.46,0,0.91-0.18,1.23-0.5l6.61-6.61v15.65
		c0.06,8.01,6.56,14.48,14.57,14.49h43.91C88.48,91.51,94.98,85,95,76.97V55.01C95,54.05,94.22,53.27,93.26,53.27z M84.57,46.31
		v6.96H32.4v-1.74c-0.01-0.16-0.04-0.32-0.1-0.47l4.85-4.85c0.15,0.06,0.31,0.1,0.47,0.1H84.57z M14.12,64.31L9.2,59.39l46.73-46.73
		l4.92,4.92L21.16,57.27L14.12,64.31z M91.52,76.97c-0.01,6.11-4.96,11.07-11.08,11.08H36.54c-6.12,0-11.08-4.96-11.09-11.08V58.49
		c-0.01-0.16-0.04-0.32-0.1-0.47l1.37-1.37c0.15,0.06,0.31,0.1,0.47,0.1h64.34V76.97z"/>
</g>
</svg>
