<?xml version="1.0" encoding="utf-8"?>
<!-- Generator: Adobe Illustrator 24.1.2, SVG Export Plug-In . SVG Version: 6.00 Build 0)  -->
<svg version="1.1" id="Capa_1" xmlns="http://www.w3.org/2000/svg" xmlns:xlink="http://www.w3.org/1999/xlink" x="0px" y="0px" width="32px" height="32px"
	 viewBox="0 0 100 100" style="enable-background:new 0 0 100 100;" xml:space="preserve">
<path class="st0" d="M82.39,5H29.41c-0.76,0-1.38,0.62-1.38,1.38v7.49c0,0.76,0.62,1.38,1.38,1.38h7.34v5.96h-7.34
	c-0.76,0-1.38,0.62-1.38,1.38v9.82C21.47,32.62,16.24,38,16.23,44.57v49.05c0,0.76,0.62,1.38,1.38,1.38c0,0,0,0,0,0h59.86
	c0.76,0,1.38-0.62,1.38-1.38V44.57C78.83,38,73.6,32.61,67.03,32.41v-9.82c0-0.76-0.62-1.38-1.38-1.38h-7.34v-5.96h24.08
	c0.76,0,1.38-0.62,1.38-1.38V6.38C83.77,5.62,83.15,5,82.39,5z M76.09,44.57v47.7h-57.1v-47.7c0.01-5.21,4.22-9.43,9.43-9.43h38.23
	C71.86,35.15,76.08,39.37,76.09,44.57z M64.27,32.39H30.79v-8.43h33.48V32.39z M55.56,21.21H39.51v-5.96h16.05V21.21z M81.02,12.49
	H30.79V7.75h50.22V12.49z"/>
<path class="st0" d="M24.81,41.11v39.5c0,0.83,0.67,1.5,1.5,1.5h42c0.83,0,1.5-0.67,1.5-1.5v-39.5c0-0.83-0.67-1.5-1.5-1.5h-42
	C25.48,39.61,24.81,40.29,24.81,41.11z M27.81,42.61h39v36.5h-39V42.61z"/>
</svg>
