<?xml version="1.0" encoding="utf-8"?>
<!-- Generator: Adobe Illustrator 24.1.2, SVG Export Plug-In . SVG Version: 6.00 Build 0)  -->
<svg version="1.1" id="Capa_1" xmlns="http://www.w3.org/2000/svg" xmlns:xlink="http://www.w3.org/1999/xlink" x="0px" y="0px" width="32px" height="32px"
	 viewBox="0 0 100 100" style="enable-background:new 0 0 100 100;" xml:space="preserve">
<g>
	<path class="st0" d="M69.2,22.8v-4.5h0.6c2.8,0,5-2.3,5-5V10c0-2.8-2.3-5-5-5H30.1c-2.8,0-5,2.3-5,5v3.3c0,2.8,2.3,5,5,5h0.7v4.5
		c-5.1,0.5-9.2,4.9-9.2,10.2v51.8c0,5.6,4.6,10.2,10.2,10.2h36.4c5.6,0,10.2-4.6,10.2-10.2V33C78.4,27.7,74.4,23.3,69.2,22.8z
		 M27.2,13.3V10c0-1.6,1.3-3,3-3h39.7c1.6,0,3,1.3,3,3v3.3c0,1.6-1.3,3-3,3H30.1C28.5,16.3,27.2,15,27.2,13.3z M76.3,84.8
		c0,4.5-3.7,8.2-8.2,8.2H31.8c-4.5,0-8.2-3.7-8.2-8.2V33c0-4.5,3.7-8.2,8.2-8.2c0.6,0,1-0.5,1-1v-5.4h34.3v5.4c0,0.6,0.5,1,1,1
		c4.5,0,8.2,3.7,8.2,8.2V84.8z"/>
	<path class="st0" d="M72.9,53.2c0-1.2-0.5-2.3-1.3-3.2c-1.7-1.7-4.7-1.7-6.4,0L57.2,58c-0.9,0.9-1.3,2-1.3,3.2c0,0.7,0.2,1.4,0.5,2
		c-1.2,0.2-2.2,1-2.9,1.9c-0.3-0.3-0.7-0.6-1.1-0.8c-0.6-0.3-1.3-0.5-2-0.5c-1.3,0-2.5,0.5-3.3,1.4c-0.3-0.5-0.7-1-1.1-1.4l-4.4-3.5
		c0,0,0,0,0,0c0,0,0,0,0,0l-4.4-3.5c-0.8-0.6-1.8-1-2.8-1c-1.4,0-2.7,0.6-3.5,1.7c-1.2,1.6-1.3,3.7-0.3,5.3c-0.5,0.1-1,0.3-1.5,0.6
		c-1.4,0.9-2.1,2.5-2,4c0,0,0,0,0,0l0,17.3c0,2.6,2.1,4.7,4.7,4.7h27.9c0.2,0,0.4,0.1,0.7,0.1s0.5,0,0.7-0.1h7.1
		c2.6,0,4.7-2.1,4.7-4.7V54.7c0-0.2-0.1-0.4-0.1-0.5C72.8,53.9,72.9,53.6,72.9,53.2z M60.9,87.5h-0.9c-0.5-0.1-0.9-0.3-1.3-0.7
		c-0.5-0.5-0.7-1.1-0.7-1.7c0-0.3,0.1-0.6,0.2-0.9l0.3-0.5c0.1-0.1,0.1-0.2,0.2-0.3l3.2-3.2l3.5,3.5l-3.2,3.2
		C61.8,87.2,61.4,87.4,60.9,87.5z M43.2,82.6c0.6,0.1,1.2,0.5,1.6,1.1c0.4,0.6,0.5,1.2,0.3,1.9c-0.3,1.3-1.6,2.2-2.9,1.9l-4.5-0.9
		l1-4.8L43.2,82.6z M44.3,80.7c-0.6-0.3-1-0.8-1.2-1.4c-0.2-0.6-0.2-1.3,0.1-1.9l2.1-4.1l4.4,2.2l-2.1,4.1
		C47,80.8,45.5,81.3,44.3,80.7z M42,75.2c-0.1-0.3-0.3-0.7-0.5-1l-3.1-4.7l1.8,1.5c0.8,0.6,1.8,1,2.8,1c0.2,0,0.3,0,0.5-0.1L42,75.2
		z M39.8,75.3c0.4,0.6,0.5,1.2,0.4,1.9s-0.5,1.2-1.1,1.6c-1.1,0.7-2.7,0.4-3.4-0.7l-2.5-3.8l4.1-2.7L39.8,75.3z M33.5,78.4l-0.9-0.2
		c-1.2-0.3-2.5,0-3.5,0.7v-7.2L33.5,78.4z M29.6,84c-0.4-0.6-0.5-1.2-0.3-1.9c0.2-1.1,1.3-2,2.4-2c0.2,0,0.3,0,0.5,0.1l4.5,0.9
		l-1,4.8l-4.5-0.9C30.5,85,30,84.6,29.6,84z M46.6,82.8c1.2-0.3,2.3-1.2,2.9-2.3l4.8-9.5c0.3,0.3,0.6,0.5,1,0.7
		c-0.5,0.4-0.8,0.8-1.1,1.3l-2.8,4.9l0,0c0,0,0,0,0,0l-2.8,4.9c-0.6,1-0.8,2.3-0.4,3.4c0.1,0.5,0.4,0.9,0.6,1.3h-2.3
		c0.3-0.5,0.5-1,0.7-1.6C47.3,84.9,47.1,83.8,46.6,82.8z M68.8,67.5c0.6,0.1,1.2,0.5,1.6,1.1c0.4,0.6,0.5,1.2,0.3,1.9
		c-0.3,1.3-1.6,2.2-2.9,1.9l-4.5-0.9l1-4.8L68.8,67.5z M56.4,83.1l-1.8,3.1c-0.6,1.1-2.2,1.6-3.4,0.9c-0.6-0.3-1-0.9-1.2-1.5
		c-0.2-0.6-0.1-1.3,0.2-1.9l2.3-4l4.3,2.5l-0.2,0.3C56.6,82.7,56.5,82.9,56.4,83.1z M58,72.7c0.4,0,0.8,0.1,1.2,0.3
		c1.2,0.7,1.6,2.2,0.9,3.4l-2.3,4l-4.3-2.5l2.3-4C56.3,73.2,57.1,72.7,58,72.7z M62.2,76.9c0.5-1.2,0.4-2.5-0.1-3.6l3.1,0.6
		c0,0,0,0,0,0L62.2,76.9z M66.9,82.1l-3.5-3.5l3.2-3.2c0.5-0.5,1.1-0.7,1.7-0.7c0.7,0,1.3,0.3,1.7,0.7c1,1,1,2.5,0,3.5L66.9,82.1z
		 M70.9,66.2c-0.5-0.3-1.1-0.6-1.7-0.7l-5.5-1.2c0,0,0,0,0,0c0,0,0,0,0,0l0,0l7.2-7.2L70.9,66.2L70.9,66.2z M66.6,51.5
		c0.5-0.5,1.1-0.7,1.7-0.7c0.7,0,1.3,0.3,1.7,0.7c0.5,0.5,0.7,1.1,0.7,1.7s-0.3,1.3-0.7,1.7l-3.2,3.2l-3.5-3.5L66.6,51.5z
		 M58.7,59.4l3.2-3.2l3.5,3.5l-3.2,3.2c-0.5,0.5-1.2,0.7-1.9,0.7l-0.8-0.2c-0.3-0.1-0.6-0.3-0.8-0.5c-0.5-0.5-0.7-1.1-0.7-1.7
		C57.9,60.5,58.2,59.9,58.7,59.4z M57.3,65.1c0.2,0,0.3,0,0.5,0.1l1.1,0.2c0.4,0.1,0.8,0.2,1.2,0.3l2.2,0.5l-1,4.8L56.8,70
		c-0.9-0.2-1.6-0.9-1.8-1.7c0-0.3,0-0.6-0.1-0.9c0-0.1,0-0.2,0-0.3C55.1,66,56.1,65.1,57.3,65.1z M50.4,65.9c0.4,0,0.8,0.1,1.1,0.3
		c0.6,0.3,1,0.8,1.2,1.4c0,0.4,0.1,0.7,0.1,1.1c0,0.3-0.1,0.6-0.2,0.9l-2.1,4.1l-4.4-2.2l0.7-1.4c0.2-0.3,0.4-0.7,0.5-1l0.8-1.6
		C48.6,66.5,49.5,65.9,50.4,65.9z M45.6,67.2c0,0.3,0,0.6-0.1,0.9L45.1,69c0,0,0,0,0,0c-0.8,1-2.4,1.2-3.5,0.4L38,66.5l3.1-3.9
		l3.6,2.9C45.2,66,45.5,66.6,45.6,67.2z M32.5,58.9c0.5-0.6,1.2-0.9,1.9-0.9c0.6,0,1.1,0.2,1.5,0.5l3.6,2.9l-3.1,3.9l-3.6-2.9
		C31.8,61.5,31.6,60,32.5,58.9z M30.2,65.2c0.4-0.3,0.9-0.4,1.3-0.4c0.8,0,1.6,0.4,2.1,1.1l2.5,3.8L32,72.5l-2.5-3.8
		c-0.2-0.3-0.3-0.7-0.4-1.1v0c0,0,0,0,0,0C29.1,66.6,29.4,65.7,30.2,65.2z M68.2,87.5h-3.8l6.5-6.5v3.8
		C70.9,86.3,69.7,87.5,68.2,87.5z"/>
</g>
</svg>
