<?xml version="1.0" encoding="utf-8"?>
<!-- Generator: Adobe Illustrator 24.1.2, SVG Export Plug-In . SVG Version: 6.00 Build 0)  -->
<svg version="1.1"
	 id="Capa_1" xmlns:cc="http://creativecommons.org/ns#" xmlns:dc="http://purl.org/dc/elements/1.1/" xmlns:inkscape="http://www.inkscape.org/namespaces/inkscape" xmlns:rdf="http://www.w3.org/1999/02/22-rdf-syntax-ns#" xmlns:sodipodi="http://sodipodi.sourceforge.net/DTD/sodipodi-0.dtd" xmlns:svg="http://www.w3.org/2000/svg"
	 xmlns="http://www.w3.org/2000/svg" xmlns:xlink="http://www.w3.org/1999/xlink" x="0px" y="0px" width="32px" height="32px" viewBox="0 0 100 100"
	 style="enable-background:new 0 0 100 100;" xml:space="preserve">
<g transform="translate(0,-952.36218)">
	<path class="st0" d="M50,966.6c-2.4,0-3.8,0.3-4.9,0.8c-1.1,0.5-1.6,1.1-2.5,1.6c-1.8,1-5.6,2.2-18,2.2c-0.6,0-1.1,0.5-1.1,1.2
		c0,0.1,0,0.2,0.1,0.3l2.6,7.7h-10C10,980.4,5,985.3,5,991.3v36c0,6,5,10.9,11.1,10.9h67.9c6.1,0,11.1-4.9,11.1-10.9v-36
		c0-6-5-10.8-11.1-10.8h-10l2.5-7.7c0.2-0.6-0.1-1.3-0.7-1.5c-0.1,0-0.2-0.1-0.3-0.1c-12.4,0-16.2-1.2-18-2.2
		c-0.9-0.5-1.5-1.1-2.5-1.6C53.8,966.9,52.4,966.6,50,966.6z M50,968.9c2.2,0,3.2,0.2,3.9,0.6c0.7,0.3,1.2,0.9,2.4,1.6
		c2.2,1.2,6.7,2.3,17.6,2.4l-11,33.5h-8.2l4.6-26.4c0.1-0.6-0.3-1.2-0.9-1.4c-0.1,0-0.3,0-0.4,0c-0.5,0.1-0.9,0.5-1,1l-4.6,26.5
		c0,0.1,0,0.1,0,0.2h-4.6c0-0.1,0-0.1,0-0.2l-4.6-26.5c-0.1-0.6-0.6-1-1.3-1c-0.6,0-1.1,0.6-1.1,1.2c0,0,0,0.1,0,0.1l4.6,26.4h-8
		c0-0.1,0-0.3-0.1-0.4l-11-33.1c10.9-0.1,15.4-1.2,17.6-2.4c1.2-0.7,1.7-1.2,2.4-1.6C46.8,969.1,47.8,968.9,50,968.9z M16.1,982.7
		h10.8l1.9,5.8h-6.5c-5,0-9.2,3.5-9.2,8v25.5c0,4.5,4.2,8,9.2,8h55.4c5,0,9.2-3.5,9.2-8v-25.5c0-4.5-4.2-8-9.2-8h-6.4l1.9-5.8h10.7
		c4.9,0,8.8,3.8,8.8,8.5v36c0,4.7-3.9,8.5-8.8,8.5H16.1c-4.9,0-8.8-3.8-8.8-8.5v-36C7.3,986.5,11.2,982.7,16.1,982.7z M22.3,990.8
		h7.2L35,1007h-5.7c-0.1,0-0.1,0-0.2,0c-0.6,0.1-1.1,0.6-1,1.3c0.1,0.6,0.6,1.1,1.3,1l0,0h41.5c0.6,0,1.2-0.5,1.2-1.1
		c0-0.6-0.5-1.2-1.1-1.2c0,0,0,0,0,0h-5.5l5.3-16.2h7.2c3.9,0,6.9,2.6,6.9,5.7v25.5c0,3.1-3,5.7-6.9,5.7H22.3
		c-3.9,0-6.9-2.7-6.9-5.7v-25.5C15.4,993.4,18.4,990.8,22.3,990.8z"/>
</g>
</svg>
