<?xml version="1.0" encoding="utf-8"?>
<!-- Generator: Adobe Illustrator 24.1.2, SVG Export Plug-In . SVG Version: 6.00 Build 0)  -->
<svg version="1.1" id="Capa_1" xmlns="http://www.w3.org/2000/svg" xmlns:xlink="http://www.w3.org/1999/xlink" x="0px" y="0px" width="32px" height="32px"
	 viewBox="0 0 100 100" style="enable-background:new 0 0 100 100;" xml:space="preserve">
<g>
	<path class="st0" d="M66.26,30.3h-2.42V16.6c0-0.81-0.65-1.48-1.48-1.48h-0.95C60.68,9.43,55.85,5,49.97,5S39.28,9.43,38.55,15.12
		h-0.93c-0.81,0-1.48,0.65-1.48,1.48v13.7h-2.42c-1.96,0-3.54,1.58-3.54,3.66l3.88,56.09C34.37,94.86,48.39,95,49.99,95
		c1.6,0,15.6-0.14,15.94-4.95l3.9-56.21C69.81,31.89,68.22,30.3,66.26,30.3z M49.99,7.97c4.26,0,7.78,3.11,8.49,7.15H41.52
		C42.21,11.08,45.73,7.97,49.99,7.97z M39.08,21.53l11.7,1.6c0.06,0,0.14,0.02,0.2,0.02c0.73,0,1.37-0.53,1.47-1.27
		c0.12-0.81-0.46-1.56-1.27-1.66l-12.1-1.66v-0.46H60.9v9.11l-16.35-2.73c-0.77-0.12-1.56,0.42-1.7,1.21
		c-0.14,0.81,0.42,1.56,1.21,1.7l16.85,2.79v0.12H39.08V21.53z M33.72,33.25h3.9h24.77h3.9c0.34,0,0.59,0.26,0.59,0.49l-0.93,13.4
		H34.05l-0.93-13.3C33.12,33.53,33.38,33.25,33.72,33.25z M64.42,69.03H35.58L34.25,50.1h31.48L64.42,69.03z M37,89.83L35.76,72
		h28.43l-1.23,17.7c-0.65,0.85-5.42,2.34-12.99,2.34C42.35,92.03,37.52,90.51,37,89.83z"/>
</g>
</svg>
