<?xml version="1.0" encoding="utf-8"?>
<!-- Generator: Adobe Illustrator 24.1.2, SVG Export Plug-In . SVG Version: 6.00 Build 0)  -->
<svg version="1.1" id="Capa_1" xmlns="http://www.w3.org/2000/svg" xmlns:xlink="http://www.w3.org/1999/xlink" x="0px" y="0px" width="32px" height="32px"
	 viewBox="0 0 100 100" style="enable-background:new 0 0 100 100;" xml:space="preserve">
<path class="st0" d="M39.5,37l-0.8,0.3c-4.6,1.7-11.5,4.3-11.5,12.2v39.5c0,3.4,2.7,6.1,6.1,6.1h33.4c3.4,0,6.1-2.7,6.1-6.1V49.4
	c0-7.8-6.9-10.4-11.5-12.2L60.5,37c-1.8-0.7-2.5-1.6-2.8-2.2c1.4-0.3,2.5-1.6,2.5-3.1v-6.8c0-1.7-1.4-3.2-3.2-3.2h-1.4V10.6
	C55.6,7.5,53.1,5,50,5s-5.6,2.5-5.6,5.6v11.1H43c-1.7,0-3.2,1.4-3.2,3.2v6.8c0,1.5,1.1,2.8,2.5,3.1C42,35.4,41.3,36.3,39.5,37z
	 M70.6,76.7H29.4V53.9h41.1V76.7z M66.7,92.8H33.3c-2.1,0-3.9-1.7-3.9-3.9V79h41.1v9.9C70.6,91,68.8,92.8,66.7,92.8z M59.7,39.1
	l0.8,0.3c4.5,1.7,10.1,3.8,10.1,10v2.2H29.4v-2.2c0-6.3,5.6-8.4,10.1-10l0.8-0.3c3.1-1.2,4.1-3.2,4.4-4.2h10.6
	C55.6,35.9,56.5,37.9,59.7,39.1z M46.6,10.6c0-1.9,1.5-3.4,3.4-3.4s3.4,1.5,3.4,3.4v11.1h-6.7V10.6z M42.1,24.9
	c0-0.5,0.4-0.9,0.9-0.9h14c0.5,0,0.9,0.4,0.9,0.9v6.8c0,0.5-0.4,0.9-0.9,0.9H43c-0.5,0-0.9-0.4-0.9-0.9V24.9z"/>
</svg>
