<svg xmlns="http://www.w3.org/2000/svg" viewBox="0 0 400 300" height="32px" width="32px"><g id="blue"><path d="M220.91,84.34c-.65.46-.64,1.26-.67,2A2.06,2.06,0,0,0,220.91,84.34Z"/><path d="M220.23,86.37h0v0A0,0,0,0,0,220.23,86.37Z"/><path d="M311.6,132.2l-.36,0A.5.5,0,0,0,311.6,132.2Z"/><path d="M312,133.24c-.11-.44-.68-.66-.95-.42v1c-.66.33-.2-.59-.86-.54-.08-.81.52-1,1-1-.49-.11-1-.71-1.14.17-.47-.34,0-1-.56-1.34-.18.11-.39.37-.61.53a.47.47,0,0,1-.69,0v-.14c-.54-.46-.94-.18-1.34.1s-.78.58-1.27.11l.1-.26c-.34-.51-1,0-1.64-.53.18.19.32.79-.06.84-.7-.59-1.21-.13-1.71-.85l-.54.7c-.31-.07-.74-.14-1.25-.2s-1.12-.15-1.78-.25l-1-.14c-.36-.05-.73-.08-1.1-.16l-2.3-.38c-.78-.14-1.55-.32-2.3-.47s-1.46-.33-2.12-.5-1.26-.3-1.77-.47l-1.24-.4.13-.08a51.41,51.41,0,0,1-7.48-3l-1-.5c-.35-.17-.7-.32-1-.5-.67-.35-1.33-.68-2-1s-1.23-.64-1.8-.9c-.29-.14-.57-.26-.84-.37s-.52-.24-.76-.34c-.16-1-1-1.39-1.4-2,.14.48-.23.85-.44.64-1.57-1.37-.37.35-2.19-.72a3.13,3.13,0,0,1-.47-.25c-.17-.11-.36-.24-.55-.39-.4-.29-.84-.65-1.32-1.06-.24-.2-.47-.43-.71-.67l-.73-.74-.75-.77-.71-.84-.69-.84c-.23-.28-.46-.55-.66-.84-.4-.57-.79-1.12-1.13-1.62-.18-.25-.32-.5-.46-.74s-.26-.45-.37-.66a10.64,10.64,0,0,1-.51-1,1.63,1.63,0,0,1-.9-.4,3.55,3.55,0,0,1-.64-.7c-.19-.25-.37-.51-.58-.74a2.25,2.25,0,0,0-.7-.57l.25-.06a6.57,6.57,0,0,1-1-1.43,5.18,5.18,0,0,1-.31-.57l-.32-.62-.65-1.33c-.2-.45-.39-.91-.58-1.35l-.28-.64c-.1-.21-.19-.4-.27-.6a7.28,7.28,0,0,0-.81-1.63l-.06.22a1.16,1.16,0,0,1-.46-.53.65.65,0,0,1,.08-.47,2.35,2.35,0,0,0,.42-1.1,1.87,1.87,0,0,1-2.26-.52l.24-.07a10,10,0,0,0-1.07-1c-.22-.21-.45-.44-.66-.67a3.07,3.07,0,0,1-.28-.35,2.08,2.08,0,0,1-.2-.35l.63-.13a2.61,2.61,0,0,1-.87-1.4,7.91,7.91,0,0,1-.22-.78,4.13,4.13,0,0,0-.13-.59c0-.34,0-.74.07-1.16,0-.21,0-.43.05-.65s0-.46.06-.68a5.31,5.31,0,0,0-.07-1.38,3.46,3.46,0,0,0-.19-.68,3.86,3.86,0,0,0-.3-.66c.57-.41,1.14-.81,1.7-1.18l-.19-.16-3.57-.21c-2.16-.12-5.1-.29-8.17-.39a78.79,78.79,0,0,0-9,.09c-2.72.23-4.93.76-6,1.77l-.64,0,.16.77c-.21.94.58,1.33-.06,1.3l-.07-1.28c-.08,1-.49.31-.89,0A2.9,2.9,0,0,1,220,87.5c.27.17.25-.16.38-.31.14.25.38.54.55.84a1.2,1.2,0,0,1,.22,1c.09,1-1,.14-.91,1.29l.18,2.26c.08.75.18,1.5.28,2.25L221,97c.12.75.27,1.49.42,2.24s.3,1.49.47,2.24.4,1.47.62,2.21.44,1.47.69,2.2.56,1.45.86,2.16c-.19.23-.24.07-.42,0,.24.41.45.82.65,1.22s.37.81.58,1.19a20.15,20.15,0,0,0,1.26,2.22,2,2,0,0,1-.53,1.09c.09-.13.4.35.87,1.09s1,1.77,1.63,2.81c.29.53.61,1,.89,1.53l.78,1.34a10.09,10.09,0,0,1,.75,1.4l1-.55c1,1.49-.8,1.19.33,2.43.84-.2,1.18.39,1.44,1a5.53,5.53,0,0,0,.39.91.67.67,0,0,0,.58.39c-.11.06.32.75-.11,1,.84-.36.65.54,1.12.81.3,0,.12-.28.25-.56l.91.74c0,.54-.27,1-.64.64.35.57,1,1.58,1.89,2.84-4.49.18-6.61,1.44-9.18,1,.46.12,1.19.61.12.83-.28-.86-3.22.62-3.89-.25-1.2.11-5.11,0-3.69,1.17-.71-.58-4.21-.82-2.19-1.33a10.81,10.81,0,0,0-3.15,0l1.54.33c-4,.17-6.2-.74-8.69.32l1.51.47c-2.36.07-4.34.16-5.37-1l2.4-.36a48.07,48.07,0,0,0-9.52.72l1.17,0c-4.07,1.16-25.84.52-29.56,2l1.85.91-3.2.74c.38-.16,1.14-2.37,1.53-2.62-7.35.09-43.82.78-50.39.18-2.69-.5-.6-1.43-.58-1.58-3.19.34-1.31,1-4,.88-.76-.16.1-.7.5-.83-1.18.1-2.32-.21-2.38.21,1.53.33,1,1.45,1.69,2.17l-3.52-.09.09-.71c-.79,0-1.82,1.93-5.31,1.55-5.85-.3-12.16-1.91-18-2.08.06-.42,1.26-.67,2.48-.92a8.91,8.91,0,0,1-2.73-.21c1.48.74-2.42.49-1.28.81-4.14,1.72-9.84.15-13.52,1.32-.2,1.55-5.79,30.09-5.62,31.94a13.66,13.66,0,0,1-2.73-.22c.34.43,2.67.64,3.88.39l.13-1c2.79-.34.71.59,3.46.52.22.81-2.3,1-4.53,1.06,2,.1,4.08.69,4.82-.2,1.92.34-.13,1,2.19,1.34,1.6-.24,3.66-1,5.57-.56l0,.15c4.61.83,6.83-1.23,11-.4l-.42.27c1.5.46,4.33-.16,7,.33-.77-.16-1.48-.74.1-.84,3.09.51,5.11,0,7.39.63l2.06-.79c10.59.15,52.28-1,62.9-1.1l-.41.13c16.16-.4,49.4-.34,66-1.43a14.63,14.63,0,0,0,2.6.48c-.48.72-1,1.45-1.45,2.17-.67,1.06-1.33,2.1-2,3l-.48-.59c-.1.21-.22.43-.34.67s-.24.48-.37.74c-.27.5-.57,1-.88,1.55-.66,1.05-1.29,2.23-2,3.34s-1.26,2.24-1.8,3.22c-.27.49-.52.94-.73,1.36s-.37.8-.51,1.12c-.36.7-.76,1.44-1.18,2.22l-1.22,2.53c-.11.23-.21.45-.32.67l-.16.34-.14.35-.59,1.44c-.39,1-.8,2-1.11,3-.16.53-.33,1.06-.49,1.59s-.33,1.08-.45,1.64c-.25,1.11-.48,2.23-.69,3.37s-.27,2.29-.36,3.44c0,.28-.05.57-.05.85V205c0,.57,0,1.14,0,1.7l-.59,1.37-.52,1.41c-.34.94-.69,1.9-1,2.87l.25.88a40.65,40.65,0,0,0,4,1.42c2.41.74,5.65-.09,9,.26a45.89,45.89,0,0,0,5.09.25,29.93,29.93,0,0,0,4.78-.46c1.49-.27,2.84.93,4,.41a7.55,7.55,0,0,0,2.69-2l.71.16-.09-1.37c0-.1,0-.2,0-.29s0-.19.05-.27a4.6,4.6,0,0,0,0-.49,7,7,0,0,0-.05-.75c0-.39-.07-.56.28-.44l-.12,1.11-.06.55,0,.28v.27a1.93,1.93,0,0,1,0-.27q0-.12.06-.21a.83.83,0,0,1,.12-.25c.07-.1.15-.08.23,0a1.82,1.82,0,0,1,.24.43c.08.17.19.37.29.54a3.65,3.65,0,0,1,.06-.49c0-.16.07-.32.11-.47a4.06,4.06,0,0,1,.3-.83c-.25-.35-.31.18-.48.41-.09-.45-.3-1-.41-1.57a3,3,0,0,1,.14-1.65c.13-.82.44-.76.73-.75s.61,0,.82-.92l.22-.9.29-.87.28-.88.14-.44.17-.43.68-1.71.78-1.66a46.08,46.08,0,0,1,3.82-6.33,60.2,60.2,0,0,1,4.89-5.79c.47-.45.92-.9,1.38-1.36.22-.24.47-.45.71-.67l.72-.67.72-.67.76-.64.76-.65.37-.33.4-.31c.39.09.15.26,0,.55.59-.55,1.18-1.07,1.77-1.57s1.22-.92,1.82-1.38l.45-.33.47-.32.93-.63c.3-.21.61-.43.91-.66s.63-.41.94-.63a2.76,2.76,0,0,1,1.7.28c-.38-.14,3.2-2.26,7.26-3.84.25-.1.5-.21.76-.3l.77-.27,1.5-.52.37-.12.36-.11.72-.2,1.3-.38c.21-.06.4-.12.59-.16l.54-.13.9-.19a6.32,6.32,0,0,1,.85-.16l-.17-1.29a4.65,4.65,0,0,1,1-.17,3.09,3.09,0,0,1,.66,0,1.21,1.21,0,0,1,.65.36,1,1,0,0,0,.58.31,4.53,4.53,0,0,0,1.49-.22,1.72,1.72,0,0,1,1.19-.94,6.23,6.23,0,0,1,1.88-.21c1.35,0,2.67.11,3.16-.37,0,.14,1.59.1,1.57.66.17-.5.57-.58,1-.58a4.84,4.84,0,0,0,1.52,0c.33-.28-.3-.28-.61-.57l2.28-.4.13.05-.46-5.32a1.74,1.74,0,0,0,1.53-.4c0-.77.36-7.41.52-14.1s.15-13.4.08-14.33C311.62,133,311.9,133.08,312,133.24Z"/><path d="M249.07,214.1l0,.46a7.18,7.18,0,0,0,.05,1,2.86,2.86,0,0,0,.63-1.53,14,14,0,0,0,.26-1.87,4.26,4.26,0,0,0-.8,1.5A3,3,0,0,0,249.07,214.1Z"/><path d="M250,212.15v0Z"/><path d="M65.44,168.11l1.5-.05A8.27,8.27,0,0,0,65.44,168.11Z"/><path d="M228.53,132.67l-.16,0Z"/><path d="M169.39,134.66h.12S169.44,134.64,169.39,134.66Z"/></g></svg>