<svg xmlns="http://www.w3.org/2000/svg" viewBox="0 0 400 300" height="32px" width="32px"><g id="blue"><path d="M155.09,215c.65-.46.64-1.26.67-2A2.06,2.06,0,0,0,155.09,215Z"/><path d="M155.77,212.92h0v0A0,0,0,0,0,155.77,212.92Z"/><path d="M64.4,167.09l.36,0A.5.5,0,0,0,64.4,167.09Z"/><path d="M64,166.05c.11.44.68.66,1,.42v-1c.66-.33.2.59.86.54.08.81-.52,1-1,1,.49.11,1,.71,1.14-.17.47.35,0,1,.56,1.34.18-.11.39-.36.61-.53a.47.47,0,0,1,.69,0v.14c.54.46.94.18,1.34-.1s.78-.57,1.27-.11l-.1.26c.34.51,1,0,1.64.53-.18-.18-.32-.78.06-.84.7.59,1.21.13,1.71.85l.54-.7c.31.07.74.14,1.25.2s1.12.16,1.78.25l1,.14c.36.05.73.08,1.1.16l2.3.38c.78.14,1.55.32,2.3.47s1.46.33,2.12.5,1.26.3,1.77.47l1.24.4-.13.08a51.41,51.41,0,0,1,7.48,3l1,.5c.35.17.7.32,1,.5.67.35,1.33.69,2,1s1.23.64,1.8.9c.29.14.57.26.84.37l.76.34c.16,1,1,1.4,1.4,2-.14-.48.23-.85.44-.64,1.57,1.37.37-.34,2.19.72a4.44,4.44,0,0,1,.47.25c.17.11.36.24.55.39.4.29.84.65,1.32,1.06.24.2.47.43.71.67l.73.74.75.78c.24.27.47.55.71.83l.69.84c.23.28.46.56.66.84.4.57.79,1.12,1.13,1.62.18.25.32.5.46.74l.37.66a10.64,10.64,0,0,1,.51,1,1.63,1.63,0,0,1,.9.4,3.55,3.55,0,0,1,.64.7c.19.25.37.51.58.74a2.25,2.25,0,0,0,.7.57l-.25.06a6.57,6.57,0,0,1,1,1.43,5.18,5.18,0,0,1,.31.57l.32.63.65,1.32.58,1.36c.1.21.19.43.28.63s.19.4.27.6a7.06,7.06,0,0,0,.81,1.63l.06-.22a1.13,1.13,0,0,1,.46.54.63.63,0,0,1-.08.46,2.39,2.39,0,0,0-.42,1.1,1.87,1.87,0,0,1,2.26.52l-.24.07a10,10,0,0,0,1.07,1c.22.21.45.44.66.67a4.29,4.29,0,0,1,.28.35,2.08,2.08,0,0,1,.2.35l-.63.13a2.65,2.65,0,0,1,.87,1.4,7.91,7.91,0,0,1,.22.78,3.84,3.84,0,0,0,.13.59c0,.34,0,.74-.07,1.16,0,.21,0,.43-.05.66s0,.45-.06.68a5.26,5.26,0,0,0,.07,1.37,3.28,3.28,0,0,0,.19.68,3.86,3.86,0,0,0,.3.66c-.57.41-1.14.81-1.7,1.18l.19.16,3.57.21c2.16.12,5.1.29,8.17.4a81.06,81.06,0,0,0,9-.1c2.72-.23,4.93-.76,6-1.77l.64,0-.16-.77c.21-1-.58-1.33.06-1.31l.07,1.28c.08-.94.49-.31.89,0a2.82,2.82,0,0,1,.22-1.11c-.27-.18-.25.15-.38.3-.14-.25-.38-.54-.55-.84a1.2,1.2,0,0,1-.22-.95c-.09-1,1-.14.91-1.28l-.18-2.27c-.08-.75-.18-1.5-.28-2.25l-.3-2.25c-.12-.75-.27-1.49-.42-2.24s-.3-1.49-.47-2.24-.4-1.47-.62-2.21-.44-1.47-.69-2.2-.56-1.44-.86-2.16c.19-.23.24-.07.42.06-.24-.42-.45-.83-.65-1.23s-.37-.8-.58-1.19a21.12,21.12,0,0,0-1.26-2.22,2,2,0,0,1,.53-1.09c-.09.13-.4-.35-.87-1.08s-1-1.77-1.63-2.82c-.29-.53-.61-1-.89-1.52l-.78-1.34a11.57,11.57,0,0,1-.75-1.4l-1,.54c-1-1.49.8-1.19-.33-2.42-.84.2-1.18-.4-1.44-1.05a5.06,5.06,0,0,0-.39-.9c-.15-.25-.33-.41-.58-.39.11-.07-.32-.76.11-1-.84.36-.65-.54-1.12-.81-.3,0-.12.28-.25.56l-.91-.73c0-.55.27-1,.64-.65-.35-.57-1-1.58-1.89-2.84,4.49-.18,6.61-1.44,9.18-1-.46-.12-1.19-.61-.12-.83.28.86,3.22-.61,3.89.25,1.2-.11,5.11,0,3.69-1.17.71.59,4.21.83,2.19,1.33a10.81,10.81,0,0,0,3.15,0l-1.54-.32c4-.17,6.2.73,8.69-.33l-1.51-.46c2.36-.08,4.34-.17,5.37,1l-2.4.36a47.33,47.33,0,0,0,9.52-.72l-1.17,0c4.07-1.16,25.84-.53,29.56-2l-1.85-.9,3.2-.75c-.38.16-1.14,2.38-1.53,2.62,7.35-.09,43.82-.78,50.39-.18,2.69.5.6,1.43.58,1.58,3.19-.34,1.31-1,4.05-.88.76.16-.1.7-.5.83,1.18-.1,2.32.21,2.38-.21-1.53-.33-1-1.45-1.69-2.17l3.52.09-.09.71c.79,0,1.82-1.93,5.31-1.55,5.85.31,12.16,1.91,18,2.08-.06.42-1.26.67-2.48.92a8.61,8.61,0,0,1,2.73.22c-1.48-.75,2.42-.5,1.28-.82,4.14-1.72,9.84-.15,13.52-1.32.2-1.55,5.79-30.09,5.62-31.94a13.66,13.66,0,0,1,2.73.22c-.34-.43-2.67-.64-3.88-.39l-.13,1c-2.79.34-.71-.59-3.46-.52-.22-.81,2.3-1,4.53-1.06-2-.1-4.08-.68-4.82.2-1.92-.34.13-1-2.19-1.33-1.6.23-3.66,1-5.57.55l0-.15c-4.61-.83-6.83,1.23-11.05.41l.42-.27c-1.5-.47-4.33.16-7-.34.77.16,1.48.75-.1.84-3.09-.51-5.11,0-7.39-.63l-2.06.79c-10.59-.15-52.28,1-62.9,1.1l.41-.13c-16.16.4-49.4.34-66,1.43a15.59,15.59,0,0,0-2.6-.48c.48-.72,1-1.45,1.45-2.17.67-1.06,1.33-2.1,2-3l.48.59c.1-.22.22-.44.34-.68s.24-.48.37-.73c.27-.5.57-1,.88-1.56.66-1,1.29-2.23,2-3.34s1.26-2.24,1.8-3.21c.27-.5.52-1,.73-1.37s.37-.8.51-1.12c.36-.7.76-1.44,1.18-2.22l1.22-2.53c.11-.22.21-.45.32-.67l.16-.34.14-.35c.2-.47.39-1,.59-1.44.39-1,.8-2,1.11-3,.16-.53.33-1.06.49-1.59s.33-1.08.45-1.64q.38-1.66.69-3.36t.36-3.45c0-.28.05-.56.05-.85v-.86c0-.58,0-1.14,0-1.71l.59-1.37.52-1.4c.34-1,.69-1.91,1-2.88l-.25-.88a40.65,40.65,0,0,0-4-1.42c-2.41-.74-5.65.09-9-.26a43.57,43.57,0,0,0-5.09-.24,27.78,27.78,0,0,0-4.78.46c-1.49.26-2.84-.94-4-.42a7.46,7.46,0,0,0-2.69,2l-.71-.17.09,1.37c0,.1,0,.2,0,.3a2.56,2.56,0,0,0,0,.27,4.23,4.23,0,0,0,0,.48,7,7,0,0,0,0,.75c0,.39.07.56-.28.44l.12-1.1L127,88l0-.27v-.28a1.93,1.93,0,0,1,0,.27q0,.12-.06.21a.83.83,0,0,1-.12.25c-.07.1-.15.08-.23,0a2,2,0,0,1-.24-.42,4.63,4.63,0,0,0-.29-.54,4.1,4.1,0,0,1-.06.49c0,.16-.07.31-.11.46a4.06,4.06,0,0,1-.3.83c.25.36.31-.18.48-.41.09.45.3,1,.41,1.57a3,3,0,0,1-.14,1.65c-.13.82-.44.77-.73.75s-.61,0-.82.92l-.22.9-.29.88-.28.87c0,.15-.09.3-.14.44l-.17.43L123,98.66l-.78,1.66a45.49,45.49,0,0,1-3.82,6.33,60.2,60.2,0,0,1-4.89,5.79c-.47.45-.92.9-1.38,1.37-.22.23-.47.44-.71.67l-.72.66-.72.67-.76.64-.76.65-.37.33-.4.31c-.39-.09-.15-.25,0-.54q-.89.81-1.77,1.56c-.6.48-1.22.92-1.82,1.38l-.45.33-.47.32-.93.63-.91.66c-.31.2-.63.41-.94.63a2.76,2.76,0,0,1-1.7-.28c.38.14-3.2,2.27-7.26,3.84-.25.1-.5.21-.76.3l-.77.27-1.5.52-.37.13-.36.1-.72.21-1.3.37c-.21.06-.4.12-.59.16l-.54.13-.9.2a7.28,7.28,0,0,1-.85.15l.17,1.3a5.21,5.21,0,0,1-1,.16,2.55,2.55,0,0,1-.66,0,1.21,1.21,0,0,1-.65-.36,1,1,0,0,0-.58-.31,4.53,4.53,0,0,0-1.49.22,1.72,1.72,0,0,1-1.19.94,6.23,6.23,0,0,1-1.88.21c-1.35,0-2.67-.11-3.16.38,0-.15-1.59-.1-1.57-.67-.17.5-.57.59-1,.58a4.84,4.84,0,0,0-1.52,0c-.33.28.3.29.61.58l-2.28.39-.13-.05.46,5.32a1.77,1.77,0,0,0-1.53.4c0,.77-.36,7.41-.52,14.1s-.15,13.41-.08,14.33C64.38,166.25,64.1,166.21,64,166.05Z"/><path d="M126.93,85.19l0-.46a7,7,0,0,0,0-1,2.79,2.79,0,0,0-.63,1.52,14,14,0,0,0-.26,1.87,4.26,4.26,0,0,0,.8-1.5A3,3,0,0,0,126.93,85.19Z"/><path d="M126,87.15s0,0,0,0,0,0,0,0Z"/><path d="M310.56,131.18l-1.5,0A8.27,8.27,0,0,0,310.56,131.18Z"/><path d="M147.47,166.62l.16,0Z"/><path d="M206.61,164.63h-.12S206.56,164.65,206.61,164.63Z"/></g></svg>