<?xml version="1.0" encoding="utf-8"?>
<!-- Generator: Adobe Illustrator 24.1.2, SVG Export Plug-In . SVG Version: 6.00 Build 0)  -->
<svg version="1.1" id="Capa_1" xmlns="http://www.w3.org/2000/svg" xmlns:xlink="http://www.w3.org/1999/xlink" x="0px" y="0px" width="200px" height="200px"
	 viewBox="0 0 500 500" style="enable-background:new 0 0 500 500;" xml:space="preserve">
<style type="text/css">
	.st0{opacity:0.27;fill:#D6D6D6;}
	.st1{fill:#64798A;}
	.st2{fill:#27A2DB;}
	.st3{fill:#E6FF00;}
	.st4{fill:#DDE805;}
</style>
<circle class="st0" cx="250" cy="250" r="225"/>
<path class="st1" d="M137.9,362.7c-24.5-28.2-37.9-64.4-37.9-101.8c0-88.5,63.4-155.3,147.4-155.3c85.6,0,152.6,68,152.6,154.8
	c0,36.5-12.5,67.6-39.4,98l-14.9-13.2c23.5-26.5,34.4-53.5,34.4-84.8c0-75.7-58.3-134.9-132.7-134.9c-72.7,0-127.6,58.2-127.6,135.4
	c0,32.6,11.7,64.2,33.1,88.8L137.9,362.7z"/>
<path class="st2" d="M164.4,250.4L164.4,250.4c19.1,0,34.8,15.6,34.8,34.8V367c0,19.1-15.6,34.8-34.8,34.8l0,0"/>
<path class="st3" d="M146.3,401.7h18.9V250.4h-16.4c-1.4,0-2.5,1.1-2.5,2.5V401.7z"/>
<path class="st4" d="M146.3,368h-18.5c-1.4,0-2.5-1.1-2.5-2.5v-78.5c0-1.4,1.1-2.5,2.5-2.5h18.5L146.3,368L146.3,368z"/>
<path class="st2" d="M335.1,250.4L335.1,250.4c-19.1,0-34.8,15.6-34.8,34.8V367c0,19.1,15.6,34.8,34.8,34.8l0,0"/>
<path class="st3" d="M350.7,401.7h-16.4V250.4h16.4c1.4,0,2.5,1.1,2.5,2.5v146.2C353.2,400.6,352.1,401.7,350.7,401.7z"/>
<path class="st4" d="M353.2,368h18.5c1.4,0,2.5-1.1,2.5-2.5v-78.5c0-1.4-1.1-2.5-2.5-2.5h-18.5V368z"/>
<path class="st3" d="M384.9,174.2c-28.4-47-79.4-76-134.6-76c-55.9,0-107.2,29-135.2,76.1c-1.6,2.7-0.6,6.1,2.2,7.6l23.2,12.7
	c2.6,1.4,5.9,0.5,7.4-2.1c21.4-35.2,60.1-56.8,102.5-56.8c41.6,0,80.2,21.7,101.9,57c1.6,2.6,4.8,3.5,7.4,2l23.1-12.8
	C385.5,180.4,386.5,176.9,384.9,174.2z"/>
</svg>
