<?xml version="1.0" encoding="utf-8"?>
<!-- Generator: Adobe Illustrator 24.3.0, SVG Export Plug-In . SVG Version: 6.00 Build 0)  -->
<svg version="1.1" id="Layer_1" xmlns="http://www.w3.org/2000/svg" xmlns:xlink="http://www.w3.org/1999/xlink" x="0px" y="0px"
	 viewBox="0 0 100 100" style="enable-background:new 0 0 100 100;" xml:space="preserve">
<g>
	<path d="M25.3,39.5L70.4,20l-20.2-7.8L2.7,29.5L25.3,39.5z M48.6,16.8l7.6,3.1l-8.8,3.5l-7.5-3.3L48.6,16.8z"/>
	<polygon points="26.7,59.6 36.2,64.1 47.3,52.4 26.7,43.3 	"/>
	<polygon points="23.9,61.3 12.1,55.7 2.5,66.4 23.9,78.8 	"/>
	<polygon points="2,34.8 1.9,62.9 10.2,53.6 	"/>
	<polygon points="23.9,58.2 23.9,42 4.4,33.3 13,53 	"/>
	<polygon points="51.6,53 51.6,93 98.2,66 98.2,32.3 	"/>
	<polygon points="74.2,21.5 28.8,41.1 50.1,50.6 96.4,30 	"/>
	<polygon points="48.6,55.1 38.3,66 48.6,88.6 	"/>
	<polygon points="26.7,80.5 47.3,92.4 35.6,66.9 26.7,62.7 	"/>
</g>
</svg>
