<?xml version="1.0" encoding="utf-8"?>
<!-- Generator: Adobe Illustrator 24.3.0, SVG Export Plug-In . SVG Version: 6.00 Build 0)  -->
<svg version="1.1" id="Layer_1" xmlns="http://www.w3.org/2000/svg" xmlns:xlink="http://www.w3.org/1999/xlink" x="0px" y="0px"
	 viewBox="0 0 100 100" style="enable-background:new 0 0 100 100;" xml:space="preserve">
<g>
	<path d="M61,28.4c0.8-0.8,0.6-1.5,0.2-2.4c-0.6-1.1-1.1-2.2-1.7-3.3c-0.5-0.8-1-1.1-1.8-0.4c-0.7,0.7-0.4,1.5-0.8,2.3
		c-0.6,1-1.3,1.5-1.4,2.7c0,1.2,1.1,1.3,2,0.8c0.4-0.2,0.5-0.5,0.8,0c0.2,0.3,0,0.8,0.3,1.1C59,29.7,60.5,28.8,61,28.4 M50,9.5
		c6.3,0,12.2,1.4,17.5,3.9c-1,1-1.2,2.9-1.9,3.9c-0.4,0.6-1,0.9-1.5,1.4c-0.6,0.6-0.6,1.4-0.6,2.2c-0.3,0,0.2,1.7,0.4,1.9
		c0.6,0.5,1.2,0.1,1.7-0.1c2-1,1.4,1.3,2.3,2.3c1.3,1.4,2.5-1.4,2.8-2.2c0.3-0.9,0.5-1.4,0-2.2c-0.4-0.6-0.6-0.9-0.4-1.7
		c0.2-0.7,0.7-1.5,1.1-2.2c0.2-0.2,0.4-0.5,0.6-0.7c0.3,0.2,0.7,0.4,1.1,0.6c-0.2,0.3-0.3,0.6-0.5,0.8c-0.3,0.4-0.6,0.7-0.5,1.3
		c0.1,0.5,0.4,1.3,0.7,1.7c0.4,0.6,0.9,0.5,1.6,0.3c1-0.2,1.9,0.5,0.6,1.1c-0.6,0.3-1.1,0.4-1.1,1.2c0,0.4,0.1,0.8-0.4,1
		c-0.5,0.3-0.9,0-1.3,0.6c-0.3,0.5-0.4,1.1-0.6,1.5c-0.6,1.2-2.1,0.8-3.3,0.8c-0.6,0-1.1,0-1.5-0.5c-0.2-0.3-0.3-0.8-0.6-1
		c-1-0.6-0.9,1.6-1.4,1.9c-0.4,0.3-0.8,0.3-1.2,0.6c-0.3,0.3-0.6,0.7-0.8,1.1c-0.5,0.6-0.9,1.1-1.6,1.4c-0.6,0.2-1.3,0.3-1.8,0.6
		c-1.1,0.7,0,2.1,0.5,2.9c0.2,0.4,0.8,1.1,0.2,1.5c-0.4,0.3-1.2,0.1-1.6,0c-0.5,0-1.2-0.2-1.6,0c-0.7,0.3-0.5,0.9-0.5,1.5
		c0,0,0.1,1.4,0.2,1.6c0.2,0.4,0.7,0.6,1.2,0.7c1.1,0.3,2.3,0.9,3.1-0.1s1.2-2.2,2.4-2.9c0.7-0.4,2-1.3,2.8-0.9
		c1.1,0.5,1.7,2.2,2.6,3.1c0.4,0.4,0.7,0.6,1.2,0.3s0.7-0.9,0.4-1.3c-0.5-0.8-2.8-1.3-2.2-2.6c0.5-1,2.1,0.6,2.6,1s0.7,0.8,0.8,1.4
		c0,0.5,0,0.9,0.2,1.3c0.2,0.3,0.6,1.1,1,1.1c0.5,0.1,0.6-0.4,0.8-0.8c0.8-1.5,1.5-0.2,2.1,0.7c0.7,1.1,1.8,0.9,2.9,1.2
		c1.3,0.3,1.2,1.5,0.4,2.4c-1,1-2.3,0.5-3.4,0.2s-2.7-1.2-3.7-0.1c-0.4,0.4-0.6,1-1.3,0.9c-0.5-0.1-1-0.5-1.4-0.8
		c-0.6-0.4-1.4-0.8-1.8-1.4c-0.2-0.4-0.3-0.9-0.4-1.3C66.4,39.4,65,40,64,40.2c-1.3,0.2-2.6,0.4-3.9,0.6c-1.4,0.3-2.2,0.5-3.1,1.6
		c-1,1.2-1.9,2.3-2.9,3.5c-0.8,1-0.8,2-1,3.2c-0.2,1.5-0.6,3.1-0.5,4.6c0.1,1.2,1.4,2,2.1,2.8c0.8,0.8,1.7,2.2,2.9,2.3
		c1.2,0.2,2.5-0.1,3.7-0.2c0.7,0,1.4-0.1,2.1-0.1c0.6,0,1.3-0.2,1.8,0c0.9,0.3,1.1,2.1,1.4,2.9c0.4,1.3,0.9,2.6,1.2,3.9
		c0.4,1.3-0.1,2.5-0.3,3.8c-0.3,1.5,0,2.3,0.5,3.7c0.6,1.4,1.1,2.8,1.7,4.2c0.3,0.8,0.8,2.9,1.7,3.2c0.8,0.3,2.5-0.2,3.4-0.4
		c1.3-0.3,1.7-1.7,2.3-2.8c0.6-1.2,1.3-2.5,1.9-3.7c0.7-1.3,1.3-2.4,2.4-3.3c0.9-0.8,1.2-1.2,1.1-2.5c-0.1-0.8-0.2-1.7-0.3-2.5
		c-0.1-0.6-0.2-1.2-0.1-1.8c0.3-1.1,1.8-2,2.6-2.7c1.1-1,1.7-1.7,2.1-3.1c0.2-0.7,1.2-3-0.2-2.7c-1,0.2-2.4,1.7-3.3,1
		c-0.7-0.5-1-2.1-1.4-2.8c-0.6-1.5-1.3-2.9-1.9-4.4c-0.2-0.4-1.4-2.8-0.3-2.5c0.4,0.1,0.8,1.1,1,1.4c0.3,0.6,0.6,1.3,1,1.9
		c0.6,1.2,1.2,2.5,1.9,3.7c0.8,1.5,1.7,0.8,2.9,0c1.2-0.7,2.4-1.4,3.6-2.2c0.4-0.2,1.1-0.5,1.6-0.9c0,0.4,0.1,0.8,0.1,1.3
		c0,6.8-1.7,13.2-4.6,18.9c0.2-0.6,0.3-1.6-0.1-2.2c-0.5-0.6-1.2,0.1-1.7,0.5c-0.4,0.3-0.9,0.6-1.2,1.1C83.9,70.1,84,71,84,71.6
		s-0.2,1.6,0.2,2.2c0.1,0.2,0.4,0.3,0.6,0.4C77.1,85.4,64.4,92.7,50,92.7c-7.7,0-14.8-2.1-21-5.7c-0.1-0.8,0.8-1.9,1.1-2.5
		c0.6-1.1,1.1-2.2,1.7-3.3c0.5-0.8,1.3-1.4,2-2c0.9-0.8,1.8-1.6,2.8-2.4c0.7-0.6,1.6-1.3,2.3-2c0.6-0.8,0.4-1.8,0.9-2.6
		c0.4-0.7,1.3-0.7,2.1-0.8c1.1-0.2,1.5-0.5,2-1.5s0.9-1.9,1.4-2.9c0.3-0.7,1.2-1.8,1.2-2.6c0-0.9-1.1-1.2-1.8-1.5
		c-1-0.5-2.1-1-3.1-1.5c-0.9-0.5-1.1-1-1.3-1.9c-0.3-1.1-0.7-1.6-1.5-2.3c-0.8-0.6-1.6-1.2-2.4-1.8c-1.7-1.2-3.8-1.1-5.8-1.3
		c-1-0.1-1.9-0.4-2.6,0.4c-0.5,0.5-0.8,1.1-1.6,0.7c-0.9-0.5-0.6-1.5-1.1-2.2c-0.4-0.6-1.5-0.4-1.8-1.1c-0.5-0.8,0.6-1.8-0.5-2.2
		c-1.1-0.5-1.6,1-2.6,0.9s-1.2-1.5-1-2.2c0.2-0.8,0.5-1.9,1.3-2.2c0.9-0.4,2.3-0.5,3.2-0.5c1,0,1.2,0.5,1.5,1.3
		c0.3,0.7,1.2,1.2,1.5,0.2c0.2-0.7,0-1.4,0.4-2c0.6-1,1.4-2,2.1-3c0.6-0.8,1.1-1.3,2-1.8c1.9-1.1,3.8-2,5.8-2.9
		c0.6-0.3,2.1-0.6,2.4-1.4c0.3-0.8-0.7-2.2-1-2.9c-0.5-1.1-1-2.2-1.5-3.3c-0.3-0.7-0.6-2-1.5-2c-0.5,0-0.8,0.4-1.3,0.1
		c-0.2-0.2-0.3-0.5-0.4-0.8c-0.3-0.7-0.4-2-1.2-2.4c-0.6-0.3-1.9-0.2-2.4,0c-0.9,0.3-0.8,1.4-0.9,2.2c-0.1,1,0,5.7-2.1,4.6
		c-0.9-0.5-1.7-1.7-2.4-2.5c-0.6-0.7-1.6-1.4-2-2.2c-0.4-0.8,0-2.1,0.5-2.8c0.5-0.7,1.4-0.7,2.1-0.9c0.8-0.2,2.4-0.2,2.9-0.8
		c0.6-0.6,0.3-2.3,0.3-3.1c0-0.7,0.3-2.5-0.2-3.1c-0.1-0.1-0.2-0.2-0.4-0.2c0.6-0.4,1.1-0.7,1.7-1c0.2,0.2,0.4,0.5,0.6,0.7
		c2.7,2.6,5.3,5.2,8,7.8c1,1,1.9,2.4,3.5,2.1c0.6-0.1,1.6-0.2,1.5-1c0-0.7-0.5-1.4-0.8-2c-0.3-0.7-0.8-1.5-0.7-2.2
		c0.1-0.6,0.6-1.1,0.8-1.7c0.3-0.8-0.2-1.4-0.3-2.2c-0.2-0.8,0-1.7,0-2.5s0.2-1.7-0.4-2.4c-0.3-0.3-0.6-0.5-0.9-0.8
		C44,9.8,46.9,9.5,50,9.5 M8.4,51.1c0-3.6,0.5-7.1,1.4-10.5c0.8,1.7,1.8,3.4,2.8,5c0.6,1,1.3,2,1.9,3c0.5,0.8,0.9,1.6,1.9,2
		c1.9,0.8,4.1,1.2,5.8,2.4c0.9,0.6,1.5,1.6,2.1,2.4c0.3,0.4,0.6,0.6,1,0.8s0.8,0.1,0.9,0.6s-0.5,1.1-0.8,1.5
		c-0.3,0.5-0.4,0.9-0.4,1.4c0.1,0.9,0.4,1.9,0.7,2.9c0.2,1,0.3,2.2,0.9,3c0.5,0.8,1.4,1.4,2.1,2c0.9,0.9,1,1.4,0.7,2.6
		c-0.3,1.1-0.5,2.2-0.8,3.3c-0.6,2.3-1.1,4.5-1.7,6.8c-0.4,1.5-1,3.1-0.9,4.7C15.4,77.5,8.4,65.1,8.4,51.1 M91.3,46.1
		c0.1,0.6,0.1,1.3,0.2,1.9c-0.7-0.6-1.6-1-2.5-0.7c-0.5,0.2-1,0.5-1.4,0c-0.4-0.4-0.6-1.2-0.8-1.7c-0.4-1.3,0.5-1.6,1.4-0.9
		C89.1,45.6,90,46,91.3,46.1 M77.3,34.9c0.4-0.5,0.9-0.8,1.4-0.9c0,0,0,0,0.1,0h0.1l0,0c0.1,0,0.1,0,0.2,0c0.8,0.2,1.8,2,2.2,2.5
		c0.3,0.5,0.3,0.9,0.1,1.2l0,0l0,0c-0.2,0.2-0.7,0.3-1.2-0.1c-0.5-0.3-1-0.6-1.6-0.8l0,0l0,0c-0.3-0.1-0.6-0.2-0.8-0.3
		c0,0,0,0-0.1,0c0,0-0.1,0-0.1-0.1l-0.1-0.1l0,0c-0.4-0.1-0.5-0.2-0.5-0.4C76.9,35.6,77,35.2,77.3,34.9 M88.2,34.7
		C88,34.9,88,35.1,88,35.4c0.1,0.5,0.6,1,0.7,1.5c0.2,0.6,0.3,1.3,0.3,1.9c0,0.7-0.2,0.9-0.9,1c-0.4,0-1.3,0-1.6-0.3
		c-0.4-0.4-0.2-0.8-0.1-1.3c0.1-0.7,0-1.2-0.2-1.8c-0.2-0.5-0.6-1.2-0.5-1.7c0.1-0.6,0.8-0.9,1.2-1.2c0.3-0.1,0.4-0.3,0.6-0.4
		C87.7,33.7,88,34.2,88.2,34.7 M96.5,51.1C96.5,25.4,75.7,4.6,50,4.6S3.5,25.4,3.5,51.1S24.3,97.6,50,97.6S96.5,76.8,96.5,51.1"/>
</g>
</svg>
