<?xml version="1.0" encoding="utf-8"?>
<!-- Generator: Adobe Illustrator 24.3.0, SVG Export Plug-In . SVG Version: 6.00 Build 0)  -->
<svg version="1.1" id="Layer_1" xmlns="http://www.w3.org/2000/svg" xmlns:xlink="http://www.w3.org/1999/xlink" x="0px" y="0px"
	 viewBox="0 0 100 100" style="enable-background:new 0 0 100 100;" xml:space="preserve">
<style type="text/css">
	.st0{fill-rule:evenodd;clip-rule:evenodd;}
</style>
<polygon class="st0" points="66,97.2 58.9,97.2 56.8,94 62.6,84 49.4,79.7 44.7,72.7 39.9,75 34.2,72.7 31.8,76.8 27.2,76.8 
	21.2,82.6 14.8,78.4 10.7,80 9.2,75.2 14.8,75.2 21.2,75.2 10.7,70.2 24.5,68.9 16,64.2 21.2,60 24.5,58.4 27,53.6 34.2,41.9 
	37.6,22.1 39.9,22.1 44.7,22.1 49.4,29.4 47.7,33.7 44.7,37.6 44.7,41.9 47.7,43.2 56.8,33.7 58.9,25.2 51.1,25.2 53.3,17.7 
	53.3,12.5 62.6,6.2 76.4,4.7 82.4,3.3 85.2,8.8 91,12.5 91,19.9 88.5,25.2 88.5,32.3 80,33 80,37.6 86.6,39.3 87.8,46.6 80,51.9 
	82.9,55.9 80.5,58.4 74,60.8 67.7,58.4 64.3,60.8 64.3,64.2 69.7,71.3 69.7,76.8 67,82.6 68.9,82.6 68.9,84.7 64.3,87.4 63.4,89.8 
	67,91.2 "/>
</svg>
