<?xml version="1.0" encoding="utf-8"?>
<!-- Generator: Adobe Illustrator 24.3.0, SVG Export Plug-In . SVG Version: 6.00 Build 0)  -->
<svg version="1.1" id="Layer_1" xmlns="http://www.w3.org/2000/svg" xmlns:xlink="http://www.w3.org/1999/xlink" x="0px" y="0px"
	 viewBox="0 0 100 100" style="enable-background:new 0 0 100 100;" xml:space="preserve">
<style type="text/css">
	.st0{fill-rule:evenodd;clip-rule:evenodd;}
</style>
<polygon class="st0" points="27.2,55.9 31.3,58.3 26,37.8 5.4,43.3 9.6,46 2.5,59.1 6,65.2 21.8,65.2 "/>
<polygon class="st0" points="20.1,89.9 20.7,89.9 47.7,89.9 47.7,67.5 7.2,67.5 "/>
<polygon class="st0" points="56.3,6.8 30.3,6.8 16.6,30.8 36,42 "/>
<polygon class="st0" points="56.3,30 52.2,32.4 72.6,38.1 78.1,17.3 73.8,19.8 65.9,6.9 58.9,6.8 50.9,20.7 "/>
<polygon class="st0" points="83.8,33.8 64.3,45 84.6,80.2 97.5,57.5 "/>
<polygon class="st0" points="64.5,68.6 64.5,63.8 49.5,78.7 64.5,93.7 64.5,88.8 79.8,88.8 83.3,82.4 75.3,68.6 "/>
</svg>
