<svg xmlns="http://www.w3.org/2000/svg" viewBox="0 0 1600 1600"><defs><style>.cls-1{fill:#e8ff20;}</style></defs><g id="yellow"><path class="cls-1" d="M1043.28,783.56c-8.67-4.51-24.39-6.85-39.18-8.93C1015.22,778.82,1027.15,781.5,1043.28,783.56Z"/><path class="cls-1" d="M1003.82,774.53l-.24,0,.52.08Z"/><path class="cls-1" d="M844.13,763.25l10.72-1.11A83.51,83.51,0,0,0,844.13,763.25Z"/><path class="cls-1" d="M305.81,833.68l-.83,5.58c-17.24,4.94-20.25,4.49-22.84,3.85s-4.8-1.25-21,4.89a23.35,23.35,0,0,1-5.36,4c-1.11.64-2.33,1.31-3.63,1.94l-2,1-3.26,1.35c-4.88,2.06-10.13,4.2-15.61,6.3-5.35,2.31-11,4.49-16.5,6.93s-11,4.83-16,7.44c-2.53,1.29-5.11,2.47-7.43,3.78l-6.7,3.84c-8.47,5-14.8,9.8-17.61,13.25,0-.16-1.41.71-3.45,2.06s-4.47,3.35-7.06,5.22c-5.13,3.77-9.76,7.69-10.33,6.52-.85,3.77-5,8.44-9.57,14s-9.63,12-12.46,18.65c-.7,2.5.06,1.71,1.38-.06.65-.89,1.47-2,2.29-3.13a28,28,0,0,1,2.68-2.85,112.17,112.17,0,0,0-12.09,30.43c-1.27,3.07-2.18,5.65-2.94,7.52s-1.42,3-1.86,3.33c-.87.62-1.3-2.29.18-9.38a105.65,105.65,0,0,0-3.38,20.55,112.7,112.7,0,0,0,1.89,28.12c3.88,20.64,14,43.13,33.61,63.51A169.25,169.25,0,0,0,182.66,1111a277.56,277.56,0,0,0,49.91,22.54c9.12,3.17,18.55,6,28.14,8.6l3.22.88,2.18.56,4.31,1.11,8.6,2.09c11.45,2.69,22.86,5,34.16,7,45.18,8,88.92,11.82,125.59,14s66.09,2.41,81.89,2.13c-8.06-3.06-27.63-1.44-34.93-6.39,16.78-2.16,24.56,1.49,31.95-1.16,6.33,7.14,36.53,2,49.11,8.93l4.74-4,8.26,2.34c36.43-2.53,40.5-3.33,43.65-3.22s5.24.84,37.41.19a400.18,400.18,0,0,0,43.77-5c11.57-1.8,21.07-3,31.46-2.71-3.07.15-11.39-1.77-1.84-3.36,1.85,3.36,25.43-4,30.33-.84,9.4-1.07,40-2.89,29.28-6.86,5.34,2.08,32.7.67,16.63,4.12,9.22-.65,18.2-.73,24.74-2.34l-11.94-.3c15.5-1.61,27.6-2.11,38.3-2.88s20-1.91,29.91-5.24l-11.72-.56c18.58-2.41,34.07-4.56,42-.94-6.33,1.31-12.66,2.65-19,3.82,15.46-1.85,27.88-3.74,39.59-5.64,11.73-2.16,22.77-4.41,35.5-7.7-3.09.5-6.17.9-9.25,1.31,16.1-4.86,67-15.14,117.42-29.82,25.2-7.48,50.24-15.68,70.66-23.9,10.21-4,19.26-8.12,26.63-11.41,7.35-3.58,13-6.63,16.47-8.78l-15.06,2.05,12.19-6.49,6.07-3.26,6-3.49c-1.5.63-3.37,4.74-5.32,8.6s-3.94,7.48-5.44,7.44c4.1-1.63,9.49-3.81,15.93-6.79s14-6.2,22.32-10.52a414.82,414.82,0,0,0,58.23-34.72,328.73,328.73,0,0,0,32.3-26.24c2.74-2.35,5.33-5.07,8-7.73l7.9-8.08c2.56-2.84,5-5.82,7.57-8.76s5.1-5.83,7.4-9.1a226.8,226.8,0,0,0,13.62-19.7c2.08-3.46,4.37-6.77,6.22-10.4l5.61-10.83c2-3.56,3.4-7.38,5-11.11l2.38-5.68,1.24-3c.42-1,.86-2.42,1.27-3.61a301.38,301.38,0,0,0,8.48-29.88c.91-6.86,2.35-13.63,2.28-20.41a89.8,89.8,0,0,0-2.18-20,111.54,111.54,0,0,0-15.11-35.8,159.58,159.58,0,0,0-23.57-28.59c-2.13-2.1-4.25-4.11-6.62-6.19-2.11-1.88-3.54-3.13-5.31-4.58-3.39-2.87-6.68-5.39-9.91-7.88-25.74-19.09-45.87-28.81-56.11-34.53-20-11.66-1.34-7-.79-7.43-13.15-5.39-16.3-5.53-18.88-5.83s-4.59-.6-15.43-5.06c-5.72-2.88,2.27-2.23,5.84-1.31-9.76-3.47-18.25-7.84-19.57-6.5,11.56,5.6,4.88,8.06,8.86,12.67-9.2-3.71-18.43-7.07-27.69-10.28l2.13-2.31c-6.28-2.05-18.13,2-45.08-6.73-46-13.33-97.09-20.48-144.11-25.21.88-1.67,10.88-1.78,20.94-1.7-6.33-.77-16-1.3-21.76-3,5.58,2,.57,2.07-4.72,1.9s-10.87-.47-6.46.49c-17.54,2.16-37.25,1.31-56.5.76s-38-.83-53.08,1.92c-1.27,3.17-16.76,30.55-30.25,58.51-13.66,27.88-25.39,56.25-25.07,60-8.46.51-16.87,1.27-19.51.86,2.36,1.52,19,.83,27.74-.81l1.23-4.1c20.28-2.75,4.93,2,24.76.61,1.21,3.22-17,4.79-32.94,6.45,14.47-.84,28.92.82,34.62-3.06,13.61.82-1.31,4,15,4.81,11.52-1.37,26.74-4.78,40-2.75l-.24.58c16.13,1.8,28.43,1,40.45.33s23.75-1.16,38.2,1.86l-3.24.81c10.12,2.75,30.64,2.35,48.67,7.08-5.13-1.38-9.37-4.39,1.75-3.2,20.73,5.27,35.3,6,49.78,11.77,5,0,10,.08,15,.22,9.55,2.43,22.86,5.89,38.38,10.71a464.2,464.2,0,0,1,50.94,19c8.83,4,17.61,8.36,25.84,13.07A167.6,167.6,0,0,1,1271.71,838c.39.29.69.59,1,.88.11.1,0,0,0,0a2.85,2.85,0,0,1,.3.21,7.26,7.26,0,0,1,.63.5,7.66,7.66,0,0,1,1.14,1.2,4,4,0,0,1,.77,3.22,12.92,12.92,0,0,1-.28,1.61l0,.21-.42,1-.95,2.31c-.72,1.62-1.15,3.34-2,4.89-1.74,3.1-2.92,6.39-5,9.35-.9,1.53-1.81,3.06-2.71,4.57s-2.13,2.92-3.15,4.39c-8.36,11.69-19.18,22.3-30.7,31.37A250.57,250.57,0,0,1,1196,926.43c-5.32,3.16-10.59,5.75-15.3,8.11-2.36,1.17-4.51,2.33-6.65,3.32l-6,2.71,2.32-1.58C1146,950.34,1113,962.89,1074,973.3c-38.88,10.59-83.11,19.81-128.39,26.91-90.51,14.47-184.28,21.86-247.14,27.09-19.63-2.08-46.45-.34-66.76-.62,11.32,1,7.53,3.33-1.29,3.46-30.91.65-31.92,1.08-33,1.9s-2.32,1.88-33.52,2.79c-17.94.81-48.61,1.19-85.13,0s-78.95-4-119.44-9.86a548.1,548.1,0,0,1-57.57-11.15l-3.28-.86-1.55-.41-.55-.17-1.69-.57c-1.11-.39-2.19-.79-3.22-1.21a44,44,0,0,1-5.67-2.76c-3.39-2-6-4.32-7.21-6.86a7.8,7.8,0,0,1-.35-6.59,4.64,4.64,0,0,1-.58-5.55,13.51,13.51,0,0,1,4.52-4.43c3.83-2.5,7.8-4.06,11.1-6.9l-.3,1.29a13,13,0,0,1,1.94-1L299.3,976l5.56-2c7.9-2.76,17.77-5.9,29.13-9.12,22.69-6.46,51.34-13.13,80.71-18.89,58.73-11.64,120-19.88,140.64-23.66l-5.69.15c35.93-8,31.71-2.23,60.61-4.37-4.46-4.73,26.51-11.57,38.46-13.32L648.4,906c9-1.5,23.58-4.53,39.7-7.6,8.06-1.54,16.49-3.09,24.79-4.48s16.47-2.63,23.73-3.46l-.88,3c12.07-2.69,29.67-4.65,46.44-5.77s32.71-1.66,41.5-2.09c20.15-.15,45.74.89,72.82,2.32s55.63,3.17,82.11,3.73q8.32,2.75,16.5,5.76t16.24,6.05l5-.17s4.16-5.67,9.54-14.48,12.08-20.93,16.86-34,7.48-27,4.42-39.8S1034.82,790.56,1016,783l1.58-2.69L1002.07,779c-18.34-3.25-27.13-.59-25.65-3.32q12.63,1.22,25.26,2.67c-18.47-2.6-5.4-3,1.9-3.76-7.77-1.16-15.26-2.08-21.38-3.55-3.76.76,2.6,1.43,5.43,2.31-5,0-11.1.42-17.37.63a105.57,105.57,0,0,1-18.81-.94c-18.91-1.28-1-4.84-23.06-6.07a1494.42,1494.42,0,0,0-172.33-.08c-14.22.78-28.53,1.88-42.67,3q-20.71,1.75-41.55,3.83-41.65,4.11-83.94,9.69c-2.72-.84.35-1.19,3.54-2.13-33.89,5.55-64.26,9.37-95.16,15.49-8.84.09-11.49-1.25-14.23-2,2.74.78-40.11,8.09-84.37,17.36-22.13,4.6-44.64,9.72-61.89,14S306.58,833.63,305.81,833.68Z"/></g><g id="rethink_by_ringana_typo" data-name="rethink by ringana typo"><path d="M367.12,643.43l-32-58.35h-4.47v58.35H286.63V485.14h69.53q19,0,32.31,6.59t20,18.23a51.4,51.4,0,0,1,6.71,26.15q0,16.56-9.17,28.73T379.64,582l36,61.48Zm-36.44-87.86h21.68q18.33,0,18.34-16.55,0-7.82-4.59-12.3t-13.75-4.47H330.68Z"/><path d="M477.36,520.24V546.4h51.2v33.31h-51.2v28.62h57.91v35.1H433.32V485.14H535.27v35.1Z"/><path d="M757.28,485.14v35.1H714.57V643.43H670.75V520.24H628.5v-35.1Z"/><path d="M909.82,485.14V643.43H866V579.49H812.34v63.94h-44V485.14h44v59.25H866V485.14Z"/><path d="M979.75,485.14V643.43h-44V485.14Z"/><path d="M1151.86,643.43h-44l-58.13-88.31v88.31h-44.05V485.36h44.05l58.13,89.43V485.36h44Z"/><path d="M1263.29,562.5l61.26,80.93h-53l-49.86-70v70h-44V485.14h44v68.41L1272,485.14h52.54Z"/><path d="M431.06,671.45l-55.89,108v50.3H331.35v-50.3l-55.9-108h50.31l27.94,60.37,27.73-60.37Z"/><path d="M546,679.39a75.82,75.82,0,0,1,29.06,29q10.62,18.57,10.62,41.81T575,792a76.65,76.65,0,0,1-29.17,28.95,84.58,84.58,0,0,1-81.27,0A76.34,76.34,0,0,1,435.22,792q-10.74-18.56-10.73-41.81t10.73-41.81a76.34,76.34,0,0,1,29.29-29,85,85,0,0,1,81.49,0Zm-67.19,41.14q-9.62,10.85-9.61,29.62,0,18.33,9.61,29.29t26.39,10.95q16.55,0,26.15-10.95T541,750.15q0-18.78-9.5-29.62T505.2,709.68Q488.43,709.68,478.81,720.53Z"/><path d="M646.4,671.45v90.33q0,13.41,5.93,20.68t18,7.26q12.07,0,18.22-7.37t6.15-20.57V671.45h43.82v90.33q0,22.35-9.06,38a58.76,58.76,0,0,1-24.7,23.59q-15.66,7.93-35.33,7.94t-34.76-7.83A55.52,55.52,0,0,1,611.08,800q-8.51-15.64-8.5-38.23V671.45Z"/><path d="M843.62,829.74l-32-58.35h-4.47v58.35h-44V671.45h69.53q19,0,32.31,6.6t20,18.22a51.41,51.41,0,0,1,6.71,26.16q0,16.55-9.17,28.73t-26.38,17.1l36,61.48Zm-36.44-87.86h21.68q18.33,0,18.34-16.55,0-7.82-4.59-12.29t-13.75-4.47H807.18Z"/><path d="M330.68,857.76v158.3H286.63V857.76Z"/><path d="M540.57,858.44v157.62H497V926.63l-29.29,89.43H429.9l-29.29-89.43v89.43h-44V858.44h53.88l38.9,102.39,37.79-102.39Z"/><path d="M610.52,963.07v53h-44V857.76h65.73q28.62,0,43.71,14.43T691,910.75a53.41,53.41,0,0,1-6.71,26.83,46.73,46.73,0,0,1-20,18.67q-13.31,6.82-32.08,6.82Zm36-52.32q0-17.43-19.23-17.44H610.52v35.1h16.77Q646.52,928.41,646.52,910.75Z"/><path d="M792.49,989.67H736.37l-8.72,26.39H681.37l57.91-157.62H790l57.68,157.62h-46.5Zm-11-33.08-17-51.43-17.21,51.43Z"/><path d="M959.57,863.69a66.69,66.69,0,0,1,26,21.24,79.1,79.1,0,0,1,13.64,31.86H953a30.79,30.79,0,0,0-11.85-14.65,33.26,33.26,0,0,0-18.55-5.25q-14.54,0-23.48,10.84t-8.94,29q0,18.1,8.94,29.06t23.48,11a32.63,32.63,0,0,0,18.55-5.37A31.43,31.43,0,0,0,953,956.59h46.28q-5.37,27.72-25.37,44.15t-50.64,16.43q-23.47,0-41-10.17a68.79,68.79,0,0,1-27.05-28.5q-9.51-18.33-9.5-41.81t9.5-41.81a68.88,68.88,0,0,1,27.05-28.51q17.55-10.17,41-10.17Q943.58,856.2,959.57,863.69Z"/><path d="M1133.1,857.76v35.11h-42.7v123.19h-43.82V892.87h-42.26V857.76Z"/><path d="M582.81,492c-2.47.24-5,4.33-7.43.91a21.71,21.71,0,0,1-3.62-9c-.2-1.3,2-3.56,3.67-4.34.81-.4,2.92,1.36,4.12,2.49.88.83,1.22,2.22,2.17,4.08l5.22-14.34c5.84,5.31,4.33,10.76,1.87,17.07,2.27-.54,3.86-1.06,5.5-1.28,4.29-.55,6,1.51,3.91,5.44-1.61,3.05-4.23,5.56-7.31,9.48C587.65,498.33,585.27,495.24,582.81,492Z"/><path d="M587.84,523.22c3.32,7.53,5.94,14.82,5.18,22.3a265.58,265.58,0,0,1-5.53,31.36c-.84,3.73-2.45,8.1-9,8.62.58-2.86,1-5.19,1.54-7.51,2.6-11.63,5.68-23.18,7.65-34.92C588.7,536.82,587.84,530.26,587.84,523.22Z"/><path d="M608.34,503.41c4.16,15.28-3.12,24.93-12.92,34.21-2.69-3.13-2-6.33-1.21-9.5C596.6,519.05,599,510,608.34,503.41Z"/><path d="M577,506.47l-7.61,4c-4.29-4.09-1.78-7.36.55-10.46s5.37-4.87,9.42-2.61c2.23,1.24,6,1.87,6.52,3.56,1,3.27.53,7.15-.1,10.65-.29,1.61-2.38,2.9-3.66,4.33-1.57-1.47-3.47-2.72-4.6-4.48C576.77,510.37,577.15,508.5,577,506.47Z"/><path d="M582.82,550.21c-2.7,7.4-7.14,13.18-14,16.77-1.62.85-5,.55-6.18-.62s-.88-4.32-.09-6.09C565.81,553,574,549,582.82,550.21Z"/><path d="M562.5,537c6.28-11.11,12.22-9.06,21-2.52C576.31,543.81,568.75,544.72,562.5,537Z"/></g></svg>